<?xml version="1.0" encoding="iso-8859-1"?>
<!DOCTYPE svg PUBLIC "-//W3C//DTD SVG 1.1//EN" "http://www.w3.org/Graphics/SVG/1.1/DTD/svg11.dtd">
<svg 
 version="1.1" xmlns="http://www.w3.org/2000/svg" xmlns:xlink="http://www.w3.org/1999/xlink" x="0px" y="0px" width="512px"
	 height="512px" viewBox="0 0 512 512" style="enable-background:new 0 0 512 512;" xml:space="preserve"
><g id="afcae5a789ccd549f9c6e2a2f8158ab8"><g></g><path style="display: inline;" d="M264.242,30.612l75.993,75.995c4.059,4.059,9.502,6.236,15.058,6.236
		c2.316,0,4.649-0.376,6.907-1.152c7.693-2.641,13.212-9.434,14.219-17.503c1.019-8.161,4.603-15.518,10.358-21.277
		c6.895-6.895,16.064-10.691,25.816-10.691c9.756,0,18.921,3.797,25.816,10.691c14.238,14.237,14.238,37.404,0.008,51.639
		c-5.764,5.76-13.116,9.342-21.275,10.359c-8.071,1.004-14.862,6.521-17.507,14.214c-2.637,7.693-0.666,16.218,5.081,21.97
		l76.671,76.667l-53.869,53.865c-2.683-3.859-5.727-7.502-9.12-10.891c-14.938-14.942-34.798-23.168-55.924-23.168
		c-21.129,0-40.99,8.226-55.928,23.163c-14.941,14.941-23.167,34.808-23.171,55.933c0,21.125,8.229,40.99,23.167,55.928
		c3.394,3.394,7.036,6.438,10.896,9.12l-69.681,69.68l-75.993-75.997c-4.063-4.059-9.506-6.233-15.062-6.233
		c-2.312,0-4.649,0.374-6.907,1.152c-7.693,2.641-13.212,9.432-14.218,17.503c-1.015,8.159-4.599,15.516-10.354,21.275
		c-6.895,6.895-16.069,10.691-25.82,10.691c-9.754,0-18.926-3.797-25.82-10.691c-14.235-14.239-14.235-37.402,0.002-51.641
		c5.76-5.756,13.114-9.341,21.269-10.355c8.071-1.006,14.867-6.521,17.503-14.214c2.645-7.693,0.674-16.218-5.082-21.974
		l-76.663-76.662l92.481-92.479c5.747-5.751,7.718-14.276,5.082-21.967c-2.645-7.693-9.432-13.209-17.503-14.216
		c-8.161-1.019-15.518-4.602-21.277-10.361c-14.234-14.234-14.234-37.399,0-51.636c6.897-6.895,16.067-10.692,25.823-10.692
		c9.751,0,18.921,3.797,25.816,10.692c5.755,5.759,9.34,13.116,10.359,21.275c1.006,8.07,6.525,14.863,14.218,17.501
		c2.258,0.777,4.591,1.154,6.907,1.154c5.556,0,10.999-2.177,15.058-6.236L264.242,30.612 M264.242,0.5l-91.721,91.721
		c-1.539-12.316-6.978-24.238-16.434-33.695c-11.287-11.284-26.079-16.927-40.87-16.927c-14.796,0-29.588,5.643-40.876,16.927
		c-22.575,22.577-22.575,59.174-0.002,81.749c9.457,9.457,21.379,14.896,33.696,16.433L0.5,264.242l91.721,91.721
		c-12.316,1.534-24.236,6.974-33.692,16.43c-22.573,22.573-22.573,59.177-0.002,81.749c11.289,11.286,26.083,16.929,40.876,16.929
		c14.792,0,29.588-5.643,40.874-16.929c9.457-9.457,14.896-21.375,16.431-33.692l91.051,91.051l107.531-107.535
		c-12.31-1.535-24.236-6.974-33.692-16.431c-22.572-22.576-22.572-59.172,0.004-81.748c11.286-11.286,26.078-16.93,40.874-16.93
		c14.792,0,29.584,5.644,40.87,16.93c9.457,9.452,14.896,21.379,16.431,33.692l91.725-91.721l-91.725-91.723
		c12.321-1.535,24.24-6.976,33.696-16.43c22.572-22.575,22.572-59.174-0.004-81.75c-11.286-11.286-26.078-16.927-40.874-16.927
		c-14.792,0-29.584,5.641-40.87,16.927c-9.457,9.457-14.896,21.381-16.435,33.696L264.242,0.5L264.242,0.5z"></path></g></svg>