<?xml version="1.0" encoding="iso-8859-1"?>
<!DOCTYPE svg PUBLIC "-//W3C//DTD SVG 1.1//EN" "http://www.w3.org/Graphics/SVG/1.1/DTD/svg11.dtd">
<svg 
 version="1.1" xmlns="http://www.w3.org/2000/svg" xmlns:xlink="http://www.w3.org/1999/xlink" x="0px" y="0px" width="512px"
	 height="512px" viewBox="0 0 512 512" enable-background="new 0 0 512 512" xml:space="preserve"
><g id="5151e0c8492e5103c096af88a521cf0c"><g></g><path display="inline" d="M240.142,231.61h42.68l-11.424,46.068H229.18L240.142,231.61z M511.5,256
		c0,141.107-114.39,255.5-255.498,255.5C114.895,511.5,0.5,397.107,0.5,256C0.5,114.891,114.895,0.5,256.002,0.5
		C397.11,0.5,511.5,114.891,511.5,256z M370.979,193.094h-30.785l15.86-64.844h-47.812l-16.094,64.844h-42.675l15.856-64.844
		h-48.277l-15.856,64.844h-44.31v38.517h34.982l-10.962,46.068h-39.88v38.712h30.316l-15.857,67.359h48.277l16.094-67.359h42.443
		l-15.857,67.359h48.272l15.861-67.359h44.31v-38.712h-34.748l10.962-46.068h39.88V193.094z"></path></g></svg>